<!--
Add to HTML Code
<svg class="svg-icon">
    <use xlink:href="<?= get_template_directory_uri(); ?>/img/sprites.svg?ver=<?= date("h:i:s");?>#box"></use>
</svg>
-->
<svg>
    <symbol id="mouse" xmlns="http://www.w3.org/2000/svg" viewBox="0 0 21 31" fill="none">
        <path d="M10.5 5.8125C10.7569 5.8125 11.0033 5.91456 11.185 6.09624C11.3667 6.27792 11.4688 6.52432 11.4688 6.78125V10.6562C11.4688 10.9132 11.3667 11.1596 11.185 11.3413C11.0033 11.5229 10.7569 11.625 10.5 11.625C10.2431 11.625 9.99667 11.5229 9.81499 11.3413C9.63332 11.1596 9.53125 10.9132 9.53125 10.6562V6.78125C9.53125 6.52432 9.63332 6.27792 9.81499 6.09624C9.99667 5.91456 10.2431 5.8125 10.5 5.8125ZM18.25 21.3125C18.25 23.3679 17.4335 25.3392 15.9801 26.7926C14.5267 28.246 12.5554 29.0625 10.5 29.0625C8.44457 29.0625 6.47333 28.246 5.01992 26.7926C3.56652 25.3392 2.75 23.3679 2.75 21.3125V9.6875C2.75 7.63207 3.56652 5.66083 5.01992 4.20742C6.47333 2.75402 8.44457 1.9375 10.5 1.9375C12.5554 1.9375 14.5267 2.75402 15.9801 4.20742C17.4335 5.66083 18.25 7.63207 18.25 9.6875V21.3125ZM10.5 0C7.93072 0 5.46666 1.02064 3.6499 2.8374C1.83314 4.65416 0.8125 7.11822 0.8125 9.6875V21.3125C0.8125 23.8818 1.83314 26.3458 3.6499 28.1626C5.46666 29.9794 7.93072 31 10.5 31C13.0693 31 15.5333 29.9794 17.3501 28.1626C19.1669 26.3458 20.1875 23.8818 20.1875 21.3125V9.6875C20.1875 7.11822 19.1669 4.65416 17.3501 2.8374C15.5333 1.02064 13.0693 0 10.5 0V0Z" fill="white"/>
    </symbol>
    <symbol id="logo" xmlns="http://www.w3.org/2000/svg" viewBox="0 0 75 21" fill="none">
        <path d="M0.706665 20V0.363681H4.8583V16.5771H13.2766V20H0.706665Z" fill="white"/>
        <path d="M33.3061 10.1819C33.3061 12.3232 32.9002 14.1449 32.0884 15.6471C31.283 17.1492 30.1836 18.2966 28.7901 19.0892C27.403 19.8754 25.8434 20.2685 24.1111 20.2685C22.3661 20.2685 20.8001 19.8722 19.413 19.0796C18.0259 18.287 16.9297 17.1396 16.1243 15.6375C15.3189 14.1353 14.9162 12.3168 14.9162 10.1819C14.9162 8.04053 15.3189 6.2188 16.1243 4.71666C16.9297 3.21453 18.0259 2.07036 19.413 1.28414C20.8001 0.491522 22.3661 0.0952148 24.1111 0.0952148C25.8434 0.0952148 27.403 0.491522 28.7901 1.28414C30.1836 2.07036 31.283 3.21453 32.0884 4.71666C32.9002 6.2188 33.3061 8.04053 33.3061 10.1819ZM29.0969 10.1819C29.0969 8.79479 28.8892 7.62504 28.4737 6.67263C28.0646 5.72022 27.4861 4.99791 26.7383 4.50573C25.9904 4.01354 25.1147 3.76745 24.1111 3.76745C23.1076 3.76745 22.2319 4.01354 21.484 4.50573C20.7361 4.99791 20.1545 5.72022 19.739 6.67263C19.3299 7.62504 19.1253 8.79479 19.1253 10.1819C19.1253 11.5689 19.3299 12.7387 19.739 13.6911C20.1545 14.6435 20.7361 15.3658 21.484 15.858C22.2319 16.3502 23.1076 16.5963 24.1111 16.5963C25.1147 16.5963 25.9904 16.3502 26.7383 15.858C27.4861 15.3658 28.0646 14.6435 28.4737 13.6911C28.8892 12.7387 29.0969 11.5689 29.0969 10.1819Z" fill="white"/>
        <path d="M49.4021 6.71098C49.2678 6.24436 49.0793 5.83208 48.8364 5.47412C48.5935 5.10978 48.2962 4.80296 47.9447 4.55367C47.5995 4.29799 47.2032 4.10303 46.7558 3.9688C46.3147 3.83456 45.8257 3.76745 45.2888 3.76745C44.2852 3.76745 43.4031 4.01674 42.6425 4.51531C41.8882 5.01389 41.3001 5.73939 40.8783 6.69181C40.4564 7.63783 40.2455 8.79479 40.2455 10.1627C40.2455 11.5306 40.4532 12.6939 40.8687 13.6527C41.2842 14.6116 41.8722 15.3434 42.6329 15.8484C43.3935 16.347 44.2916 16.5963 45.3271 16.5963C46.2668 16.5963 47.069 16.4301 47.7337 16.0977C48.4049 15.7589 48.9163 15.2827 49.2678 14.6691C49.6258 14.0554 49.8048 13.3299 49.8048 12.4926L50.6485 12.6172H45.586V9.49152H53.803V11.9652C53.803 13.6911 53.4386 15.1741 52.7099 16.4141C51.9813 17.6478 50.9777 18.6002 49.6993 19.2714C48.4209 19.9361 46.9571 20.2685 45.308 20.2685C43.4671 20.2685 41.8499 19.8626 40.4564 19.0508C39.0629 18.2326 37.9763 17.0725 37.1965 15.5704C36.423 14.0618 36.0363 12.2721 36.0363 10.201C36.0363 8.60942 36.2664 7.19039 36.7266 5.94394C37.1933 4.6911 37.8452 3.63002 38.6826 2.7607C39.52 1.89138 40.4948 1.2298 41.607 0.775968C42.7192 0.322132 43.9241 0.0952148 45.2217 0.0952148C46.3339 0.0952148 47.3694 0.258212 48.3282 0.584207C49.287 0.903809 50.1371 1.35764 50.8786 1.94571C51.6265 2.53378 52.2369 3.23371 52.7099 4.0455C53.183 4.8509 53.4866 5.73939 53.6208 6.71098H49.4021Z" fill="white"/>
        <path d="M74.9663 10.1819C74.9663 12.3232 74.5604 14.1449 73.7486 15.6471C72.9432 17.1492 71.8437 18.2966 70.4503 19.0892C69.0632 19.8754 67.5035 20.2685 65.7713 20.2685C64.0263 20.2685 62.4602 19.8722 61.0731 19.0796C59.6861 18.287 58.5898 17.1396 57.7844 15.6375C56.979 14.1353 56.5763 12.3168 56.5763 10.1819C56.5763 8.04053 56.979 6.2188 57.7844 4.71666C58.5898 3.21453 59.6861 2.07036 61.0731 1.28414C62.4602 0.491522 64.0263 0.0952148 65.7713 0.0952148C67.5035 0.0952148 69.0632 0.491522 70.4503 1.28414C71.8437 2.07036 72.9432 3.21453 73.7486 4.71666C74.5604 6.2188 74.9663 8.04053 74.9663 10.1819ZM70.7571 10.1819C70.7571 8.79479 70.5494 7.62504 70.1339 6.67263C69.7248 5.72022 69.1463 4.99791 68.3984 4.50573C67.6506 4.01354 66.7748 3.76745 65.7713 3.76745C64.7678 3.76745 63.892 4.01354 63.1442 4.50573C62.3963 4.99791 61.8146 5.72022 61.3991 6.67263C60.99 7.62504 60.7855 8.79479 60.7855 10.1819C60.7855 11.5689 60.99 12.7387 61.3991 13.6911C61.8146 14.6435 62.3963 15.3658 63.1442 15.858C63.892 16.3502 64.7678 16.5963 65.7713 16.5963C66.7748 16.5963 67.6506 16.3502 68.3984 15.858C69.1463 15.3658 69.7248 14.6435 70.1339 13.6911C70.5494 12.7387 70.7571 11.5689 70.7571 10.1819Z" fill="white"/>
    </symbol>
    <symbol id="linked" xmlns="http://www.w3.org/2000/svg" xmlns:xlink="http://www.w3.org/1999/xlink" x="0px" y="0px" viewBox="0 0 310 310" >
        <g id="XMLID_801_">
            <path id="XMLID_802_" d="M72.16,99.73H9.927c-2.762,0-5,2.239-5,5v199.928c0,2.762,2.238,5,5,5H72.16c2.762,0,5-2.238,5-5V104.73   C77.16,101.969,74.922,99.73,72.16,99.73z"/>
            <path id="XMLID_803_" d="M41.066,0.341C18.422,0.341,0,18.743,0,41.362C0,63.991,18.422,82.4,41.066,82.4   c22.626,0,41.033-18.41,41.033-41.038C82.1,18.743,63.692,0.341,41.066,0.341z"/>
            <path id="XMLID_804_" d="M230.454,94.761c-24.995,0-43.472,10.745-54.679,22.954V104.73c0-2.761-2.238-5-5-5h-59.599   c-2.762,0-5,2.239-5,5v199.928c0,2.762,2.238,5,5,5h62.097c2.762,0,5-2.238,5-5v-98.918c0-33.333,9.054-46.319,32.29-46.319   c25.306,0,27.317,20.818,27.317,48.034v97.204c0,2.762,2.238,5,5,5H305c2.762,0,5-2.238,5-5V194.995   C310,145.43,300.549,94.761,230.454,94.761z"/>
        </g>
    </symbol>
    <symbol id="twitter" xmlns="http://www.w3.org/2000/svg" xmlns:xlink="http://www.w3.org/1999/xlink" x="0px" y="0px" viewBox="0 0 310 310" >
        <g id="XMLID_826_">
            <path id="XMLID_827_" d="M302.973,57.388c-4.87,2.16-9.877,3.983-14.993,5.463c6.057-6.85,10.675-14.91,13.494-23.73   c0.632-1.977-0.023-4.141-1.648-5.434c-1.623-1.294-3.878-1.449-5.665-0.39c-10.865,6.444-22.587,11.075-34.878,13.783   c-12.381-12.098-29.197-18.983-46.581-18.983c-36.695,0-66.549,29.853-66.549,66.547c0,2.89,0.183,5.764,0.545,8.598   C101.163,99.244,58.83,76.863,29.76,41.204c-1.036-1.271-2.632-1.956-4.266-1.825c-1.635,0.128-3.104,1.05-3.93,2.467   c-5.896,10.117-9.013,21.688-9.013,33.461c0,16.035,5.725,31.249,15.838,43.137c-3.075-1.065-6.059-2.396-8.907-3.977   c-1.529-0.851-3.395-0.838-4.914,0.033c-1.52,0.871-2.473,2.473-2.513,4.224c-0.007,0.295-0.007,0.59-0.007,0.889   c0,23.935,12.882,45.484,32.577,57.229c-1.692-0.169-3.383-0.414-5.063-0.735c-1.732-0.331-3.513,0.276-4.681,1.597   c-1.17,1.32-1.557,3.16-1.018,4.84c7.29,22.76,26.059,39.501,48.749,44.605c-18.819,11.787-40.34,17.961-62.932,17.961   c-4.714,0-9.455-0.277-14.095-0.826c-2.305-0.274-4.509,1.087-5.294,3.279c-0.785,2.193,0.047,4.638,2.008,5.895   c29.023,18.609,62.582,28.445,97.047,28.445c67.754,0,110.139-31.95,133.764-58.753c29.46-33.421,46.356-77.658,46.356-121.367   c0-1.826-0.028-3.67-0.084-5.508c11.623-8.757,21.63-19.355,29.773-31.536c1.237-1.85,1.103-4.295-0.33-5.998   C307.394,57.037,305.009,56.486,302.973,57.388z"/>
        </g>
    </symbol>
    <symbol id="facebook" xmlns="http://www.w3.org/2000/svg" xmlns:xlink="http://www.w3.org/1999/xlink" x="0px" y="0px" viewBox="0 0 408.788 408.788">
        <path d="M353.701,0H55.087C24.665,0,0.002,24.662,0.002,55.085v298.616c0,30.423,24.662,55.085,55.085,55.085  h147.275l0.251-146.078h-37.951c-4.932,0-8.935-3.988-8.954-8.92l-0.182-47.087c-0.019-4.959,3.996-8.989,8.955-8.989h37.882  v-45.498c0-52.8,32.247-81.55,79.348-81.55h38.65c4.945,0,8.955,4.009,8.955,8.955v39.704c0,4.944-4.007,8.952-8.95,8.955  l-23.719,0.011c-25.615,0-30.575,12.172-30.575,30.035v39.389h56.285c5.363,0,9.524,4.683,8.892,10.009l-5.581,47.087  c-0.534,4.506-4.355,7.901-8.892,7.901h-50.453l-0.251,146.078h87.631c30.422,0,55.084-24.662,55.084-55.084V55.085  C408.786,24.662,384.124,0,353.701,0z"/>
    </symbol>
</svg>